<?xml version="1.0" encoding="UTF-8"?> <svg xmlns="http://www.w3.org/2000/svg" id="Layer_2" data-name="Layer 2" viewBox="0 0 318.83 266.51"><defs><style> .cls-1 { fill: #f4f4f4; } .cls-2 { fill: none; opacity: .25; } </style></defs><g id="Layer_1-2" data-name="Layer 1"><g class="cls-2"><path class="cls-1" d="m318.83,249.83c-15.69,11.12-32.66,16.68-50.92,16.68-19.2,0-36.81-7.96-52.84-23.88-.12-.47-.76-1.29-1.93-2.46l-8.6-8.25c-24.46,23.06-55.95,34.59-94.46,34.59-30.08,0-55.36-7.49-75.84-22.47C11.41,227.3,0,204.42,0,175.39c0-20.72,6.38-38.27,19.14-52.67,12.41-13.93,28.91-22.82,49.51-26.69-12.41-17.67-18.61-33.12-18.61-46.35,0-16.03,5.68-28.5,17.03-37.4C77.37,4.1,90.71,0,107.1,0c18.02,0,36.98,5.62,56.88,16.85l11.06,29.5h-3.51C150.11,20.25,126.58,7.2,100.95,7.2c-9.48,0-17.27,2.64-23.35,7.9-6.44,5.5-9.66,12.93-9.66,22.3,0,14.05,11.52,32.49,34.57,55.31l114.58,113.31c7.28-9.84,13.04-23.6,17.27-41.29,3.64-15.46,5.46-30.46,5.46-44.98,0-7.03-1.87-11.71-5.62-14.06-2.81-1.76-8.02-2.81-15.63-3.16l-2.46-.35-5.79.35v-2.98l54.95-.35v3.34c-6.92-.82-11.73,2.64-14.43,10.37-.71,1.99-1.88,8.73-3.52,20.21-5.04,35.26-13.43,61.27-25.16,78.02l26.6,26.24c12.76,12.63,25.69,18.95,38.81,18.95,9.48,0,19.31-2.99,29.5-8.95l1.76,2.46Zm-119.21-22.65l-98.67-95.51c-12.88-12.52-21.95-22.47-27.21-29.85-35.23,8.19-52.85,25.81-52.85,52.85s12.23,49.75,36.69,69.88c23.17,19.08,48.22,28.62,75.14,28.62,13.93,0,25.46-1.76,34.59-5.27,8.43-3.28,18.32-9.54,29.67-18.79.23-.23.67-.55,1.32-.97.64-.41,1.08-.73,1.32-.97Z"></path></g></g></svg> 